<!DOCTYPE svg PUBLIC "-//W3C//DTD SVG 1.1//EN" "http://www.w3.org/Graphics/SVG/1.1/DTD/svg11.dtd" >
<svg version="1.1" xmlns="http://www.w3.org/2000/svg" xmlns:xlink="http://www.w3.org/1999/xlink" xml:space="preserve" width="512" height="300">
<path fill="#00444F" d="M-18.73214,230.7861L96.99902,775.2583L876.99,324.9302Z"/>
<path fill="#000000" d="M621.3332,94.73598L207.6721,-277.7261L279.1978,58.77616Z"/>
<path fill="#000000" d="M-90.25789,-105.7161L-205.989,-650.1882L49.66761,-419.994Z"/>
<path fill="#000000" d="M49.66761,-419.994L207.6721,-277.7262L-90.25789,-105.7161Z"/>
<path fill="#004753" d="M534.8546,288.9704L876.9899,324.9302L718.9854,182.6623Z"/>
<path fill="#004753" d="M718.9854,182.6623L621.3332,94.73598L534.8546,288.9704Z"/>
<path fill="#000000" d="M165.3988,124.4781L279.1979,58.77614L121.1934,-83.49174Z"/>
<path fill="#000000" d="M207.6721,-277.7261L279.1979,58.77614L121.1934,-83.49174Z"/>
<path fill="#000000" d="M-62.93749,22.81627L-90.25789,-105.7161L121.1933,-83.49176Z"/>
<path fill="#000000" d="M207.6721,-277.7261L-90.25789,-105.7161L121.1933,-83.49176Z"/>
<path fill="#000000" d="M376.85,146.7025L409.8819,72.51158L279.1978,58.77616Z"/>
<path fill="#000000" d="M376.85,146.7025L409.8819,72.51158L507.5341,160.4379Z"/>
<path fill="#000000" d="M621.3331,94.73598L409.8819,72.51158L507.5341,160.4379Z"/>
<path fill="#000000" d="M225.7511,178.8196L165.3987,124.4781L279.1979,58.77614Z"/>
<path fill="#000000" d="M34.71467,110.7427L121.1934,-83.49172L148.5138,45.04071Z"/>
<path fill="#000000" d="M148.5138,45.04071L165.3988,124.4781L34.71467,110.7427Z"/>
<path fill="#000000" d="M34.71464,110.7426L121.1933,-83.49175L7.394218,-17.78979Z"/>
<path fill="#000000" d="M7.394218,-17.78979L-62.93749,22.81627L34.71464,110.7426Z"/>
<path fill="#000000" d="M306.5183,187.3086L279.1978,58.77617L339.5502,113.1176Z"/>
<path fill="#000000" d="M339.5502,113.1176L376.85,146.7025L306.5183,187.3086Z"/>
<path fill="#00444F" d="M474.5022,234.6289L454.0873,280.4814L393.735,226.1399Z"/>
<path fill="#00444F" d="M323.4032,266.746L454.0873,280.4814L393.735,226.1399Z"/>
<path fill="#00444F" d="M474.5022,234.6289L454.0873,280.4814L534.8546,288.9704Z"/>
<path fill="#004753" d="M567.8864,214.7794L621.3331,94.73599L551.0015,135.342Z"/>
<path fill="#000000" d="M551.0015,135.342L507.5341,160.438L567.8864,214.7794Z"/>
<path fill="#000000" d="M306.5183,187.3086L279.1978,58.77615L246.1659,132.9671Z"/>
<path fill="#000000" d="M246.1659,132.9671L225.7511,178.8196L306.5183,187.3086Z"/>
<path fill="#000000" d="M182.2837,203.9155L225.7511,178.8196L165.3987,124.4781Z"/>
<path fill="#000000" d="M14.29982,156.5952L34.71467,110.7427L95.06702,165.0842Z"/>
<path fill="#000000" d="M165.3987,124.4781L34.71467,110.7427L95.06702,165.0842Z"/>
<path fill="#000000" d="M14.29979,156.5952L34.71464,110.7426L-46.05254,102.2537Z"/>
<path fill="#000000" d="M-62.93748,22.81627L34.71464,110.7426L-46.05254,102.2537Z"/>
<path fill="#000000" d="M376.85,146.7025L306.5183,187.3086L356.4352,192.555Z"/>
<path fill="#000000" d="M414.1498,180.2874L426.7668,151.949L376.85,146.7025Z"/>
<path fill="#00444F" d="M464.0667,185.5339L393.735,226.1399L443.6519,231.3864Z"/>
<path fill="#00444F" d="M443.6519,231.3864L474.5022,234.6289L464.0667,185.5339Z"/>
<path fill="#00444F" d="M517.9696,209.533L534.8545,288.9703L497.5547,255.3855Z"/>
<path fill="#00444F" d="M497.5547,255.3855L474.5022,234.6289L517.9696,209.533Z"/>
<path fill="#004753" d="M517.9696,209.533L534.8545,288.9703L555.2693,243.1178Z"/>
<path fill="#004753" d="M555.2693,243.1178L567.8864,214.7794L517.9696,209.533Z"/>
<path fill="#000000" d="M225.7511,178.8196L306.5183,187.3086L263.0509,212.4045Z"/>
<path fill="#00444F" d="M161.8688,249.7681L242.636,258.257L205.3362,224.6721Z"/>
<path fill="#000000" d="M132.3668,198.6691L165.3987,124.4781L175.8342,173.5731Z"/>
<path fill="#000000" d="M175.8342,173.5731L182.2837,203.9155L132.3668,198.6691Z"/>
<path fill="#00444F" d="M74.65215,210.9367L62.03508,239.2751L24.73528,205.6902Z"/>
<path fill="#00434E" d="M-18.73211,230.7861L62.03508,239.2751L24.73528,205.6902Z"/>
<path fill="#00444F" d="M74.65215,210.9367L62.03508,239.2751L111.952,244.5216Z"/>
<path fill="#000000" d="M132.3668,198.6691L165.3987,124.4781L121.9313,149.574Z"/>
<path fill="#000000" d="M121.9313,149.574L95.06701,165.0842L132.3668,198.6691Z"/>
<path fill="#00434E" d="M-29.16759,181.6911L-46.05254,102.2537L-8.752745,135.8386Z"/>
<path fill="#000000" d="M-8.752745,135.8386L14.29979,156.5952L-29.16759,181.6911Z"/>
<path fill="#00272E" d="M336.0203,238.4075L356.4352,192.555L329.5708,208.0652Z"/>
<path fill="#003B45" d="M329.5708,208.0652L312.9677,217.651L336.0203,238.4075Z"/>
<path fill="#00444F" d="M323.4032,266.7459L312.9677,217.651L336.0203,238.4075Z"/>
<path fill="#000405" d="M329.5708,208.0652L312.9677,217.651L306.5183,187.3086Z"/>
<path fill="#000000" d="M306.5183,187.3086L356.4352,192.555L329.5708,208.0652Z"/>
<path fill="#002B33" d="M420.5993,210.6298L464.0667,185.5339L433.2163,182.2914Z"/>
<path fill="#00191D" d="M433.2163,182.2914L414.1498,180.2874L420.5993,210.6298Z"/>
<path fill="#003139" d="M393.735,226.1399L414.1498,180.2874L420.5993,210.6298Z"/>
<path fill="#000000" d="M433.2163,182.2914L414.1498,180.2874L426.7668,151.949Z"/>
<path fill="#000203" d="M426.7668,151.949L464.0667,185.5339L433.2163,182.2914Z"/>
<path fill="#000000" d="M457.6172,155.1915L507.5341,160.4379L480.6697,175.9481Z"/>
<path fill="#000405" d="M480.6697,175.9481L464.0667,185.5339L457.6172,155.1915Z"/>
<path fill="#000203" d="M426.7668,151.949L464.0667,185.5339L457.6172,155.1915Z"/>
<path fill="#000000" d="M387.2855,195.7975L376.85,146.7025L399.9025,167.4591Z"/>
<path fill="#000000" d="M399.9025,167.4591L414.1498,180.2874L387.2855,195.7975Z"/>
<path fill="#001E23" d="M393.735,226.1399L414.1498,180.2874L387.2855,195.7975Z"/>
<path fill="#00353E" d="M336.0203,238.4075L356.4352,192.555L362.8846,222.8974Z"/>
<path fill="#00444F" d="M362.8846,222.8974L366.8706,241.65L336.0203,238.4075Z"/>
<path fill="#00444F" d="M323.4032,266.7459L366.8706,241.65L336.0203,238.4075Z"/>
<path fill="#00444F" d="M362.8846,222.8974L366.8706,241.65L393.735,226.1399Z"/>
<path fill="#00323A" d="M393.735,226.1399L356.4352,192.555L362.8846,222.8974Z"/>
<path fill="#000000" d="M387.2855,195.7975L376.85,146.7025L364.2329,175.0409Z"/>
<path fill="#000000" d="M364.2329,175.0409L356.4352,192.555L387.2855,195.7975Z"/>
<path fill="#002025" d="M393.735,226.1399L356.4352,192.555L387.2855,195.7975Z"/>
<path fill="#002F36" d="M487.1192,206.2905L507.5341,160.438L480.6697,175.9481Z"/>
<path fill="#003C46" d="M480.6697,175.9481L464.0667,185.5339L487.1192,206.2905Z"/>
<path fill="#00444F" d="M474.5022,234.6289L464.0667,185.5339L487.1192,206.2905Z"/>
<path fill="#003E48" d="M487.1193,206.2905L507.5341,160.438L513.9836,190.7804Z"/>
<path fill="#00444F" d="M513.9836,190.7804L517.9696,209.533L487.1193,206.2905Z"/>
<path fill="#00444F" d="M474.5022,234.6289L517.9696,209.533L487.1193,206.2905Z"/>
<path fill="#002A31" d="M544.8339,194.0228L507.5341,160.438L513.9836,190.7803Z"/>
<path fill="#004753" d="M513.9836,190.7803L517.9696,209.533L544.8339,194.0228Z"/>
<path fill="#004753" d="M567.8864,214.7794L517.9696,209.533L544.8339,194.0228Z"/>
<path fill="#00424D" d="M300.3507,245.9893L263.0509,212.4045L293.9012,215.647Z"/>
<path fill="#00444F" d="M293.9012,215.647L312.9677,217.651L300.3507,245.9893Z"/>
<path fill="#00444F" d="M323.4032,266.7459L312.9677,217.651L300.3507,245.9893Z"/>
<path fill="#001114" d="M293.9012,215.647L312.9677,217.651L306.5183,187.3086Z"/>
<path fill="#000304" d="M306.5183,187.3086L263.0509,212.4045L293.9012,215.647Z"/>
<path fill="#003740" d="M188.7332,234.2579L205.3362,224.6721L182.2837,203.9155Z"/>
<path fill="#003B45" d="M182.2837,203.9155L161.8688,249.7681L188.7332,234.2579Z"/>
<path fill="#00444F" d="M155.4194,219.4256L111.952,244.5216L142.8023,247.7641Z"/>
<path fill="#00444F" d="M142.8023,247.7641L161.8688,249.7681L155.4194,219.4256Z"/>
<path fill="#003B44" d="M182.2837,203.9155L161.8688,249.7681L155.4194,219.4256Z"/>
<path fill="#00161A" d="M213.134,207.158L205.3362,224.6721L182.2837,203.9155Z"/>
<path fill="#000000" d="M182.2837,203.9155L225.7511,178.8196L213.134,207.158Z"/>
<path fill="#000F11" d="M236.1865,227.9146L225.7511,178.8196L213.134,207.158Z"/>
<path fill="#003F49" d="M213.134,207.158L205.3362,224.6721L236.1865,227.9146Z"/>
<path fill="#00444F" d="M242.636,258.257L205.3362,224.6721L236.1865,227.9146Z"/>
<path fill="#00424D" d="M300.3506,245.9893L263.0509,212.4045L269.5003,242.7469Z"/>
<path fill="#00444F" d="M269.5003,242.7469L273.4863,261.4995L300.3506,245.9893Z"/>
<path fill="#00444F" d="M323.4031,266.7459L273.4863,261.4995L300.3506,245.9893Z"/>
<path fill="#00444F" d="M269.5003,242.7469L273.4863,261.4995L242.636,258.257Z"/>
<path fill="#00424D" d="M242.636,258.257L263.0509,212.4045L269.5003,242.7469Z"/>
<path fill="#00090A" d="M236.1866,227.9146L225.7511,178.8196L248.8036,199.5762Z"/>
<path fill="#001B20" d="M248.8036,199.5762L263.0509,212.4045L236.1866,227.9146Z"/>
<path fill="#00424D" d="M242.636,258.257L263.0509,212.4045L236.1866,227.9146Z"/>
<path fill="#00444F" d="M155.4194,219.4256L111.952,244.5216L124.569,216.1832Z"/>
<path fill="#003038" d="M124.569,216.1832L132.3668,198.6691L155.4194,219.4256Z"/>
<path fill="#00171A" d="M182.2837,203.9155L132.3668,198.6691L155.4194,219.4256Z"/>
<path fill="#00323A" d="M68.20267,180.5943L24.73528,205.6902L55.58561,208.9327Z"/>
<path fill="#00272D" d="M55.58561,208.9327L74.65215,210.9367L68.20267,180.5943Z"/>
<path fill="#000A0C" d="M95.067,165.0842L74.65215,210.9367L68.20267,180.5943Z"/>
<path fill="#003E48" d="M101.5165,195.4265L111.952,244.5216L88.8994,223.765Z"/>
<path fill="#003740" d="M88.8994,223.765L74.65215,210.9367L101.5165,195.4265Z"/>
<path fill="#000F11" d="M95.06701,165.0842L74.65215,210.9367L101.5165,195.4265Z"/>
<path fill="#003E48" d="M101.5165,195.4265L111.952,244.5216L124.569,216.1832Z"/>
<path fill="#001A1E" d="M124.569,216.1832L132.3668,198.6691L101.5165,195.4265Z"/>
<path fill="#000000" d="M95.06701,165.0842L132.3668,198.6691L101.5165,195.4265Z"/>
<path fill="#00181C" d="M68.20269,180.5943L24.73529,205.6902L37.35236,177.3518Z"/>
<path fill="#000000" d="M37.35236,177.3518L45.15014,159.8377L68.20269,180.5943Z"/>
<path fill="#000000" d="M95.067,165.0842L45.15014,159.8377L68.20269,180.5943Z"/>
<path fill="#000000" d="M37.35236,177.3518L45.15014,159.8377L14.29982,156.5952Z"/>
<path fill="#001518" d="M14.29982,156.5952L24.73529,205.6902L37.35236,177.3518Z"/>
<path fill="#004450" d="M1.682748,184.9336L-18.7321,230.7861L8.132227,215.276Z"/>
<path fill="#00444F" d="M8.132227,215.276L24.73529,205.6902L1.682748,184.9336Z"/>
<path fill="#00242A" d="M14.29982,156.5952L24.73529,205.6902L1.682748,184.9336Z"/>
<path fill="#004854" d="M1.682721,184.9336L-18.73213,230.7861L-25.1816,200.4437Z"/>
<path fill="#00434E" d="M-25.1816,200.4437L-29.16759,181.6911L1.682721,184.9336Z"/>
<path fill="#000A0B" d="M14.29979,156.5952L-29.16759,181.6911L1.682721,184.9336Z"/>
<path fill="none" stroke="#FFFF00" stroke-width="0.25" stroke-linecap="round" stroke-linejoin="round" d="M-18.73214,230.7861L96.99902,775.2583L876.99,324.9302Z"/>
<path fill="none" stroke="#FFFF00" stroke-width="0.25" stroke-linecap="round" stroke-linejoin="round" d="M621.3332,94.73598L207.6721,-277.7261L279.1978,58.77616Z"/>
<path fill="none" stroke="#FFFF00" stroke-width="0.25" stroke-linecap="round" stroke-linejoin="round" d="M-90.25789,-105.7161L-205.989,-650.1882L49.66761,-419.994Z"/>
<path fill="none" stroke="#FFFF00" stroke-width="0.25" stroke-linecap="round" stroke-linejoin="round" d="M49.66761,-419.994L207.6721,-277.7262L-90.25789,-105.7161Z"/>
<path fill="none" stroke="#FFFF00" stroke-width="0.25" stroke-linecap="round" stroke-linejoin="round" d="M534.8546,288.9704L876.9899,324.9302L718.9854,182.6623Z"/>
<path fill="none" stroke="#FFFF00" stroke-width="0.25" stroke-linecap="round" stroke-linejoin="round" d="M718.9854,182.6623L621.3332,94.73598L534.8546,288.9704Z"/>
<path fill="none" stroke="#FFFF00" stroke-width="0.25" stroke-linecap="round" stroke-linejoin="round" d="M165.3988,124.4781L279.1979,58.77614L121.1934,-83.49174Z"/>
<path fill="none" stroke="#FFFF00" stroke-width="0.25" stroke-linecap="round" stroke-linejoin="round" d="M207.6721,-277.7261L279.1979,58.77614L121.1934,-83.49174Z"/>
<path fill="none" stroke="#FFFF00" stroke-width="0.25" stroke-linecap="round" stroke-linejoin="round" d="M-62.93749,22.81627L-90.25789,-105.7161L121.1933,-83.49176Z"/>
<path fill="none" stroke="#FFFF00" stroke-width="0.25" stroke-linecap="round" stroke-linejoin="round" d="M207.6721,-277.7261L-90.25789,-105.7161L121.1933,-83.49176Z"/>
<path fill="none" stroke="#FFFF00" stroke-width="0.25" stroke-linecap="round" stroke-linejoin="round" d="M376.85,146.7025L409.8819,72.51158L279.1978,58.77616Z"/>
<path fill="none" stroke="#FFFF00" stroke-width="0.25" stroke-linecap="round" stroke-linejoin="round" d="M376.85,146.7025L409.8819,72.51158L507.5341,160.4379Z"/>
<path fill="none" stroke="#FFFF00" stroke-width="0.25" stroke-linecap="round" stroke-linejoin="round" d="M621.3331,94.73598L409.8819,72.51158L507.5341,160.4379Z"/>
<path fill="none" stroke="#FFFF00" stroke-width="0.25" stroke-linecap="round" stroke-linejoin="round" d="M225.7511,178.8196L165.3987,124.4781L279.1979,58.77614Z"/>
<path fill="none" stroke="#FFFF00" stroke-width="0.25" stroke-linecap="round" stroke-linejoin="round" d="M34.71467,110.7427L121.1934,-83.49172L148.5138,45.04071Z"/>
<path fill="none" stroke="#FFFF00" stroke-width="0.25" stroke-linecap="round" stroke-linejoin="round" d="M148.5138,45.04071L165.3988,124.4781L34.71467,110.7427Z"/>
<path fill="none" stroke="#FFFF00" stroke-width="0.25" stroke-linecap="round" stroke-linejoin="round" d="M34.71464,110.7426L121.1933,-83.49175L7.394218,-17.78979Z"/>
<path fill="none" stroke="#FFFF00" stroke-width="0.25" stroke-linecap="round" stroke-linejoin="round" d="M7.394218,-17.78979L-62.93749,22.81627L34.71464,110.7426Z"/>
<path fill="none" stroke="#FFFF00" stroke-width="0.25" stroke-linecap="round" stroke-linejoin="round" d="M306.5183,187.3086L279.1978,58.77617L339.5502,113.1176Z"/>
<path fill="none" stroke="#FFFF00" stroke-width="0.25" stroke-linecap="round" stroke-linejoin="round" d="M339.5502,113.1176L376.85,146.7025L306.5183,187.3086Z"/>
<path fill="none" stroke="#FFFF00" stroke-width="0.25" stroke-linecap="round" stroke-linejoin="round" d="M474.5022,234.6289L454.0873,280.4814L393.735,226.1399Z"/>
<path fill="none" stroke="#FFFF00" stroke-width="0.25" stroke-linecap="round" stroke-linejoin="round" d="M323.4032,266.746L454.0873,280.4814L393.735,226.1399Z"/>
<path fill="none" stroke="#FFFF00" stroke-width="0.25" stroke-linecap="round" stroke-linejoin="round" d="M474.5022,234.6289L454.0873,280.4814L534.8546,288.9704Z"/>
<path fill="none" stroke="#FFFF00" stroke-width="0.25" stroke-linecap="round" stroke-linejoin="round" d="M567.8864,214.7794L621.3331,94.73599L551.0015,135.342Z"/>
<path fill="none" stroke="#FFFF00" stroke-width="0.25" stroke-linecap="round" stroke-linejoin="round" d="M551.0015,135.342L507.5341,160.438L567.8864,214.7794Z"/>
<path fill="none" stroke="#FFFF00" stroke-width="0.25" stroke-linecap="round" stroke-linejoin="round" d="M306.5183,187.3086L279.1978,58.77615L246.1659,132.9671Z"/>
<path fill="none" stroke="#FFFF00" stroke-width="0.25" stroke-linecap="round" stroke-linejoin="round" d="M246.1659,132.9671L225.7511,178.8196L306.5183,187.3086Z"/>
<path fill="none" stroke="#FFFF00" stroke-width="0.25" stroke-linecap="round" stroke-linejoin="round" d="M182.2837,203.9155L225.7511,178.8196L165.3987,124.4781Z"/>
<path fill="none" stroke="#FFFF00" stroke-width="0.25" stroke-linecap="round" stroke-linejoin="round" d="M14.29982,156.5952L34.71467,110.7427L95.06702,165.0842Z"/>
<path fill="none" stroke="#FFFF00" stroke-width="0.25" stroke-linecap="round" stroke-linejoin="round" d="M165.3987,124.4781L34.71467,110.7427L95.06702,165.0842Z"/>
<path fill="none" stroke="#FFFF00" stroke-width="0.25" stroke-linecap="round" stroke-linejoin="round" d="M14.29979,156.5952L34.71464,110.7426L-46.05254,102.2537Z"/>
<path fill="none" stroke="#FFFF00" stroke-width="0.25" stroke-linecap="round" stroke-linejoin="round" d="M-62.93748,22.81627L34.71464,110.7426L-46.05254,102.2537Z"/>
<path fill="none" stroke="#FFFF00" stroke-width="0.25" stroke-linecap="round" stroke-linejoin="round" d="M376.85,146.7025L306.5183,187.3086L356.4352,192.555Z"/>
<path fill="none" stroke="#FFFF00" stroke-width="0.25" stroke-linecap="round" stroke-linejoin="round" d="M414.1498,180.2874L426.7668,151.949L376.85,146.7025Z"/>
<path fill="none" stroke="#FFFF00" stroke-width="0.25" stroke-linecap="round" stroke-linejoin="round" d="M464.0667,185.5339L393.735,226.1399L443.6519,231.3864Z"/>
<path fill="none" stroke="#FFFF00" stroke-width="0.25" stroke-linecap="round" stroke-linejoin="round" d="M443.6519,231.3864L474.5022,234.6289L464.0667,185.5339Z"/>
<path fill="none" stroke="#FFFF00" stroke-width="0.25" stroke-linecap="round" stroke-linejoin="round" d="M517.9696,209.533L534.8545,288.9703L497.5547,255.3855Z"/>
<path fill="none" stroke="#FFFF00" stroke-width="0.25" stroke-linecap="round" stroke-linejoin="round" d="M497.5547,255.3855L474.5022,234.6289L517.9696,209.533Z"/>
<path fill="none" stroke="#FFFF00" stroke-width="0.25" stroke-linecap="round" stroke-linejoin="round" d="M517.9696,209.533L534.8545,288.9703L555.2693,243.1178Z"/>
<path fill="none" stroke="#FFFF00" stroke-width="0.25" stroke-linecap="round" stroke-linejoin="round" d="M555.2693,243.1178L567.8864,214.7794L517.9696,209.533Z"/>
<path fill="none" stroke="#FFFF00" stroke-width="0.25" stroke-linecap="round" stroke-linejoin="round" d="M225.7511,178.8196L306.5183,187.3086L263.0509,212.4045Z"/>
<path fill="none" stroke="#FFFF00" stroke-width="0.25" stroke-linecap="round" stroke-linejoin="round" d="M161.8688,249.7681L242.636,258.257L205.3362,224.6721Z"/>
<path fill="none" stroke="#FFFF00" stroke-width="0.25" stroke-linecap="round" stroke-linejoin="round" d="M132.3668,198.6691L165.3987,124.4781L175.8342,173.5731Z"/>
<path fill="none" stroke="#FFFF00" stroke-width="0.25" stroke-linecap="round" stroke-linejoin="round" d="M175.8342,173.5731L182.2837,203.9155L132.3668,198.6691Z"/>
<path fill="none" stroke="#FFFF00" stroke-width="0.25" stroke-linecap="round" stroke-linejoin="round" d="M74.65215,210.9367L62.03508,239.2751L24.73528,205.6902Z"/>
<path fill="none" stroke="#FFFF00" stroke-width="0.25" stroke-linecap="round" stroke-linejoin="round" d="M-18.73211,230.7861L62.03508,239.2751L24.73528,205.6902Z"/>
<path fill="none" stroke="#FFFF00" stroke-width="0.25" stroke-linecap="round" stroke-linejoin="round" d="M74.65215,210.9367L62.03508,239.2751L111.952,244.5216Z"/>
<path fill="none" stroke="#FFFF00" stroke-width="0.25" stroke-linecap="round" stroke-linejoin="round" d="M132.3668,198.6691L165.3987,124.4781L121.9313,149.574Z"/>
<path fill="none" stroke="#FFFF00" stroke-width="0.25" stroke-linecap="round" stroke-linejoin="round" d="M121.9313,149.574L95.06701,165.0842L132.3668,198.6691Z"/>
<path fill="none" stroke="#FFFF00" stroke-width="0.25" stroke-linecap="round" stroke-linejoin="round" d="M-29.16759,181.6911L-46.05254,102.2537L-8.752745,135.8386Z"/>
<path fill="none" stroke="#FFFF00" stroke-width="0.25" stroke-linecap="round" stroke-linejoin="round" d="M-8.752745,135.8386L14.29979,156.5952L-29.16759,181.6911Z"/>
<path fill="none" stroke="#FFFF00" stroke-width="0.25" stroke-linecap="round" stroke-linejoin="round" d="M336.0203,238.4075L356.4352,192.555L329.5708,208.0652Z"/>
<path fill="none" stroke="#FFFF00" stroke-width="0.25" stroke-linecap="round" stroke-linejoin="round" d="M329.5708,208.0652L312.9677,217.651L336.0203,238.4075Z"/>
<path fill="none" stroke="#FFFF00" stroke-width="0.25" stroke-linecap="round" stroke-linejoin="round" d="M323.4032,266.7459L312.9677,217.651L336.0203,238.4075Z"/>
<path fill="none" stroke="#FFFF00" stroke-width="0.25" stroke-linecap="round" stroke-linejoin="round" d="M329.5708,208.0652L312.9677,217.651L306.5183,187.3086Z"/>
<path fill="none" stroke="#FFFF00" stroke-width="0.25" stroke-linecap="round" stroke-linejoin="round" d="M306.5183,187.3086L356.4352,192.555L329.5708,208.0652Z"/>
<path fill="none" stroke="#FFFF00" stroke-width="0.25" stroke-linecap="round" stroke-linejoin="round" d="M420.5993,210.6298L464.0667,185.5339L433.2163,182.2914Z"/>
<path fill="none" stroke="#FFFF00" stroke-width="0.25" stroke-linecap="round" stroke-linejoin="round" d="M433.2163,182.2914L414.1498,180.2874L420.5993,210.6298Z"/>
<path fill="none" stroke="#FFFF00" stroke-width="0.25" stroke-linecap="round" stroke-linejoin="round" d="M393.735,226.1399L414.1498,180.2874L420.5993,210.6298Z"/>
<path fill="none" stroke="#FFFF00" stroke-width="0.25" stroke-linecap="round" stroke-linejoin="round" d="M433.2163,182.2914L414.1498,180.2874L426.7668,151.949Z"/>
<path fill="none" stroke="#FFFF00" stroke-width="0.25" stroke-linecap="round" stroke-linejoin="round" d="M426.7668,151.949L464.0667,185.5339L433.2163,182.2914Z"/>
<path fill="none" stroke="#FFFF00" stroke-width="0.25" stroke-linecap="round" stroke-linejoin="round" d="M457.6172,155.1915L507.5341,160.4379L480.6697,175.9481Z"/>
<path fill="none" stroke="#FFFF00" stroke-width="0.25" stroke-linecap="round" stroke-linejoin="round" d="M480.6697,175.9481L464.0667,185.5339L457.6172,155.1915Z"/>
<path fill="none" stroke="#FFFF00" stroke-width="0.25" stroke-linecap="round" stroke-linejoin="round" d="M426.7668,151.949L464.0667,185.5339L457.6172,155.1915Z"/>
<path fill="none" stroke="#FFFF00" stroke-width="0.25" stroke-linecap="round" stroke-linejoin="round" d="M387.2855,195.7975L376.85,146.7025L399.9025,167.4591Z"/>
<path fill="none" stroke="#FFFF00" stroke-width="0.25" stroke-linecap="round" stroke-linejoin="round" d="M399.9025,167.4591L414.1498,180.2874L387.2855,195.7975Z"/>
<path fill="none" stroke="#FFFF00" stroke-width="0.25" stroke-linecap="round" stroke-linejoin="round" d="M393.735,226.1399L414.1498,180.2874L387.2855,195.7975Z"/>
<path fill="none" stroke="#FFFF00" stroke-width="0.25" stroke-linecap="round" stroke-linejoin="round" d="M336.0203,238.4075L356.4352,192.555L362.8846,222.8974Z"/>
<path fill="none" stroke="#FFFF00" stroke-width="0.25" stroke-linecap="round" stroke-linejoin="round" d="M362.8846,222.8974L366.8706,241.65L336.0203,238.4075Z"/>
<path fill="none" stroke="#FFFF00" stroke-width="0.25" stroke-linecap="round" stroke-linejoin="round" d="M323.4032,266.7459L366.8706,241.65L336.0203,238.4075Z"/>
<path fill="none" stroke="#FFFF00" stroke-width="0.25" stroke-linecap="round" stroke-linejoin="round" d="M362.8846,222.8974L366.8706,241.65L393.735,226.1399Z"/>
<path fill="none" stroke="#FFFF00" stroke-width="0.25" stroke-linecap="round" stroke-linejoin="round" d="M393.735,226.1399L356.4352,192.555L362.8846,222.8974Z"/>
<path fill="none" stroke="#FFFF00" stroke-width="0.25" stroke-linecap="round" stroke-linejoin="round" d="M387.2855,195.7975L376.85,146.7025L364.2329,175.0409Z"/>
<path fill="none" stroke="#FFFF00" stroke-width="0.25" stroke-linecap="round" stroke-linejoin="round" d="M364.2329,175.0409L356.4352,192.555L387.2855,195.7975Z"/>
<path fill="none" stroke="#FFFF00" stroke-width="0.25" stroke-linecap="round" stroke-linejoin="round" d="M393.735,226.1399L356.4352,192.555L387.2855,195.7975Z"/>
<path fill="none" stroke="#FFFF00" stroke-width="0.25" stroke-linecap="round" stroke-linejoin="round" d="M487.1192,206.2905L507.5341,160.438L480.6697,175.9481Z"/>
<path fill="none" stroke="#FFFF00" stroke-width="0.25" stroke-linecap="round" stroke-linejoin="round" d="M480.6697,175.9481L464.0667,185.5339L487.1192,206.2905Z"/>
<path fill="none" stroke="#FFFF00" stroke-width="0.25" stroke-linecap="round" stroke-linejoin="round" d="M474.5022,234.6289L464.0667,185.5339L487.1192,206.2905Z"/>
<path fill="none" stroke="#FFFF00" stroke-width="0.25" stroke-linecap="round" stroke-linejoin="round" d="M487.1193,206.2905L507.5341,160.438L513.9836,190.7804Z"/>
<path fill="none" stroke="#FFFF00" stroke-width="0.25" stroke-linecap="round" stroke-linejoin="round" d="M513.9836,190.7804L517.9696,209.533L487.1193,206.2905Z"/>
<path fill="none" stroke="#FFFF00" stroke-width="0.25" stroke-linecap="round" stroke-linejoin="round" d="M474.5022,234.6289L517.9696,209.533L487.1193,206.2905Z"/>
<path fill="none" stroke="#FFFF00" stroke-width="0.25" stroke-linecap="round" stroke-linejoin="round" d="M544.8339,194.0228L507.5341,160.438L513.9836,190.7803Z"/>
<path fill="none" stroke="#FFFF00" stroke-width="0.25" stroke-linecap="round" stroke-linejoin="round" d="M513.9836,190.7803L517.9696,209.533L544.8339,194.0228Z"/>
<path fill="none" stroke="#FFFF00" stroke-width="0.25" stroke-linecap="round" stroke-linejoin="round" d="M567.8864,214.7794L517.9696,209.533L544.8339,194.0228Z"/>
<path fill="none" stroke="#FFFF00" stroke-width="0.25" stroke-linecap="round" stroke-linejoin="round" d="M300.3507,245.9893L263.0509,212.4045L293.9012,215.647Z"/>
<path fill="none" stroke="#FFFF00" stroke-width="0.25" stroke-linecap="round" stroke-linejoin="round" d="M293.9012,215.647L312.9677,217.651L300.3507,245.9893Z"/>
<path fill="none" stroke="#FFFF00" stroke-width="0.25" stroke-linecap="round" stroke-linejoin="round" d="M323.4032,266.7459L312.9677,217.651L300.3507,245.9893Z"/>
<path fill="none" stroke="#FFFF00" stroke-width="0.25" stroke-linecap="round" stroke-linejoin="round" d="M293.9012,215.647L312.9677,217.651L306.5183,187.3086Z"/>
<path fill="none" stroke="#FFFF00" stroke-width="0.25" stroke-linecap="round" stroke-linejoin="round" d="M306.5183,187.3086L263.0509,212.4045L293.9012,215.647Z"/>
<path fill="none" stroke="#FFFF00" stroke-width="0.25" stroke-linecap="round" stroke-linejoin="round" d="M188.7332,234.2579L205.3362,224.6721L182.2837,203.9155Z"/>
<path fill="none" stroke="#FFFF00" stroke-width="0.25" stroke-linecap="round" stroke-linejoin="round" d="M182.2837,203.9155L161.8688,249.7681L188.7332,234.2579Z"/>
<path fill="none" stroke="#FFFF00" stroke-width="0.25" stroke-linecap="round" stroke-linejoin="round" d="M155.4194,219.4256L111.952,244.5216L142.8023,247.7641Z"/>
<path fill="none" stroke="#FFFF00" stroke-width="0.25" stroke-linecap="round" stroke-linejoin="round" d="M142.8023,247.7641L161.8688,249.7681L155.4194,219.4256Z"/>
<path fill="none" stroke="#FFFF00" stroke-width="0.25" stroke-linecap="round" stroke-linejoin="round" d="M182.2837,203.9155L161.8688,249.7681L155.4194,219.4256Z"/>
<path fill="none" stroke="#FFFF00" stroke-width="0.25" stroke-linecap="round" stroke-linejoin="round" d="M213.134,207.158L205.3362,224.6721L182.2837,203.9155Z"/>
<path fill="none" stroke="#FFFF00" stroke-width="0.25" stroke-linecap="round" stroke-linejoin="round" d="M182.2837,203.9155L225.7511,178.8196L213.134,207.158Z"/>
<path fill="none" stroke="#FFFF00" stroke-width="0.25" stroke-linecap="round" stroke-linejoin="round" d="M236.1865,227.9146L225.7511,178.8196L213.134,207.158Z"/>
<path fill="none" stroke="#FFFF00" stroke-width="0.25" stroke-linecap="round" stroke-linejoin="round" d="M213.134,207.158L205.3362,224.6721L236.1865,227.9146Z"/>
<path fill="none" stroke="#FFFF00" stroke-width="0.25" stroke-linecap="round" stroke-linejoin="round" d="M242.636,258.257L205.3362,224.6721L236.1865,227.9146Z"/>
<path fill="none" stroke="#FFFF00" stroke-width="0.25" stroke-linecap="round" stroke-linejoin="round" d="M300.3506,245.9893L263.0509,212.4045L269.5003,242.7469Z"/>
<path fill="none" stroke="#FFFF00" stroke-width="0.25" stroke-linecap="round" stroke-linejoin="round" d="M269.5003,242.7469L273.4863,261.4995L300.3506,245.9893Z"/>
<path fill="none" stroke="#FFFF00" stroke-width="0.25" stroke-linecap="round" stroke-linejoin="round" d="M323.4031,266.7459L273.4863,261.4995L300.3506,245.9893Z"/>
<path fill="none" stroke="#FFFF00" stroke-width="0.25" stroke-linecap="round" stroke-linejoin="round" d="M269.5003,242.7469L273.4863,261.4995L242.636,258.257Z"/>
<path fill="none" stroke="#FFFF00" stroke-width="0.25" stroke-linecap="round" stroke-linejoin="round" d="M242.636,258.257L263.0509,212.4045L269.5003,242.7469Z"/>
<path fill="none" stroke="#FFFF00" stroke-width="0.25" stroke-linecap="round" stroke-linejoin="round" d="M236.1866,227.9146L225.7511,178.8196L248.8036,199.5762Z"/>
<path fill="none" stroke="#FFFF00" stroke-width="0.25" stroke-linecap="round" stroke-linejoin="round" d="M248.8036,199.5762L263.0509,212.4045L236.1866,227.9146Z"/>
<path fill="none" stroke="#FFFF00" stroke-width="0.25" stroke-linecap="round" stroke-linejoin="round" d="M242.636,258.257L263.0509,212.4045L236.1866,227.9146Z"/>
<path fill="none" stroke="#FFFF00" stroke-width="0.25" stroke-linecap="round" stroke-linejoin="round" d="M155.4194,219.4256L111.952,244.5216L124.569,216.1832Z"/>
<path fill="none" stroke="#FFFF00" stroke-width="0.25" stroke-linecap="round" stroke-linejoin="round" d="M124.569,216.1832L132.3668,198.6691L155.4194,219.4256Z"/>
<path fill="none" stroke="#FFFF00" stroke-width="0.25" stroke-linecap="round" stroke-linejoin="round" d="M182.2837,203.9155L132.3668,198.6691L155.4194,219.4256Z"/>
<path fill="none" stroke="#FFFF00" stroke-width="0.25" stroke-linecap="round" stroke-linejoin="round" d="M68.20267,180.5943L24.73528,205.6902L55.58561,208.9327Z"/>
<path fill="none" stroke="#FFFF00" stroke-width="0.25" stroke-linecap="round" stroke-linejoin="round" d="M55.58561,208.9327L74.65215,210.9367L68.20267,180.5943Z"/>
<path fill="none" stroke="#FFFF00" stroke-width="0.25" stroke-linecap="round" stroke-linejoin="round" d="M95.067,165.0842L74.65215,210.9367L68.20267,180.5943Z"/>
<path fill="none" stroke="#FFFF00" stroke-width="0.25" stroke-linecap="round" stroke-linejoin="round" d="M101.5165,195.4265L111.952,244.5216L88.8994,223.765Z"/>
<path fill="none" stroke="#FFFF00" stroke-width="0.25" stroke-linecap="round" stroke-linejoin="round" d="M88.8994,223.765L74.65215,210.9367L101.5165,195.4265Z"/>
<path fill="none" stroke="#FFFF00" stroke-width="0.25" stroke-linecap="round" stroke-linejoin="round" d="M95.06701,165.0842L74.65215,210.9367L101.5165,195.4265Z"/>
<path fill="none" stroke="#FFFF00" stroke-width="0.25" stroke-linecap="round" stroke-linejoin="round" d="M101.5165,195.4265L111.952,244.5216L124.569,216.1832Z"/>
<path fill="none" stroke="#FFFF00" stroke-width="0.25" stroke-linecap="round" stroke-linejoin="round" d="M124.569,216.1832L132.3668,198.6691L101.5165,195.4265Z"/>
<path fill="none" stroke="#FFFF00" stroke-width="0.25" stroke-linecap="round" stroke-linejoin="round" d="M95.06701,165.0842L132.3668,198.6691L101.5165,195.4265Z"/>
<path fill="none" stroke="#FFFF00" stroke-width="0.25" stroke-linecap="round" stroke-linejoin="round" d="M68.20269,180.5943L24.73529,205.6902L37.35236,177.3518Z"/>
<path fill="none" stroke="#FFFF00" stroke-width="0.25" stroke-linecap="round" stroke-linejoin="round" d="M37.35236,177.3518L45.15014,159.8377L68.20269,180.5943Z"/>
<path fill="none" stroke="#FFFF00" stroke-width="0.25" stroke-linecap="round" stroke-linejoin="round" d="M95.067,165.0842L45.15014,159.8377L68.20269,180.5943Z"/>
<path fill="none" stroke="#FFFF00" stroke-width="0.25" stroke-linecap="round" stroke-linejoin="round" d="M37.35236,177.3518L45.15014,159.8377L14.29982,156.5952Z"/>
<path fill="none" stroke="#FFFF00" stroke-width="0.25" stroke-linecap="round" stroke-linejoin="round" d="M14.29982,156.5952L24.73529,205.6902L37.35236,177.3518Z"/>
<path fill="none" stroke="#FFFF00" stroke-width="0.25" stroke-linecap="round" stroke-linejoin="round" d="M1.682748,184.9336L-18.7321,230.7861L8.132227,215.276Z"/>
<path fill="none" stroke="#FFFF00" stroke-width="0.25" stroke-linecap="round" stroke-linejoin="round" d="M8.132227,215.276L24.73529,205.6902L1.682748,184.9336Z"/>
<path fill="none" stroke="#FFFF00" stroke-width="0.25" stroke-linecap="round" stroke-linejoin="round" d="M14.29982,156.5952L24.73529,205.6902L1.682748,184.9336Z"/>
<path fill="none" stroke="#FFFF00" stroke-width="0.25" stroke-linecap="round" stroke-linejoin="round" d="M1.682721,184.9336L-18.73213,230.7861L-25.1816,200.4437Z"/>
<path fill="none" stroke="#FFFF00" stroke-width="0.25" stroke-linecap="round" stroke-linejoin="round" d="M-25.1816,200.4437L-29.16759,181.6911L1.682721,184.9336Z"/>
<path fill="none" stroke="#FFFF00" stroke-width="0.25" stroke-linecap="round" stroke-linejoin="round" d="M14.29979,156.5952L-29.16759,181.6911L1.682721,184.9336Z"/>
<path fill="none" stroke="#000000" stroke-width="0.25" stroke-linecap="round" stroke-linejoin="round" d="M0,0L512,0L512,300L0,300Z"/>
</svg>
